# xmcd
#
# Track frame offsets: 
#        150
#        20550
#        36224
#        49612
#        67824
#        87356
#        105183
#        121851
#        140996
#        160506
#        178814
#        198183
#        216412
#        239310
#        261915
#        278598
#        296801
#        315409
#        332341
#
# Disc length: 4761 seconds
#
# Revision: 0
# Processed by: cddbd v1.5.1PL0 Copyright (c) Steve Scherf et al.
# Submitted via: ExactAudioCopy v0.95a5
#
DISCID=0b129713
DTITLE=Various Artist - Bachata Hits (2002)
DYEAR=1992
DGENRE=Latin
TTITLE0=Alex Bueno - Ven Salvame
TTITLE1=Antony  - En El Muelle De  San Blas.mp3
TTITLE2=Antony]  - Vivir Sin Aire.mp3
TTITLE3=Aventura - Cuando Volveras.mp3
TTITLE4=Aventura - No Es Amor.mp3
TTITLE5=Charlie Zaa - Flor Si Retoño.mp3
TTITLE6=Cristian Castro - Puertorico.mp3
TTITLE7=El Gringo De La Bachata - Gringo Muere De Dolor.mp3
TTITLE8=Frankie  Negron - Comerte A Besos.mp3
TTITLE9=Huey Dumbar - Yo Si Me Enamoré.mp3
TTITLE10=Isabel Pentoja - Así fue.mp3
TTITLE11=Jorge Morel - Azul.mp3
TTITLE12=Milly Quezada  and F. Villalona  - Pideme.mp3
TTITLE13=Monchy y Alexandra  - Te Quiero Tanto Igual Que Ayer.mp3
TTITLE14=Monchy y Alexandra - Dos Locos.mp3
TTITLE15=Monchy y Alexandra - Hoja  En Blanco.mp3
TTITLE16=Raulin Rodriguez - Quisiera  Ser La Cama.mp3
TTITLE17=Yoskar Sarante - Guitarra.mp3
TTITLE18=Yoskar Sarante - La Noche.mp3
EXTD=
EXTT0=
EXTT1=
EXTT2=
EXTT3=
EXTT4=
EXTT5=
EXTT6=
EXTT7=
EXTT8=
EXTT9=
EXTT10=
EXTT11=
EXTT12=
EXTT13=
EXTT14=
EXTT15=
EXTT16=
EXTT17=
EXTT18=
PLAYORDER=
